<svg width="512" height="512" viewBox="0 0 512 512" fill="none" xmlns="http://www.w3.org/2000/svg">
<path d="M246.5 179.785C245.379 177.321 235.904 126.116 221.803 112.938C214.092 105.733 203.463 101.735 190.959 97.6884C183.567 95.2961 173.606 93.7133 162.329 92.6241C138.723 90.3442 124.663 91.3989 122.29 91.8951C119.963 92.3816 115.963 94.7653 108.859 100.056C98.4875 107.78 90.7918 118.241 82.604 134.576C76.6577 146.439 69.965 166.901 65.6615 179.785C59.7451 197.497 59.1769 208.975 59.0068 219.524C58.8002 232.341 63.3191 242.167 67.9032 252.126C69.2965 255.153 73.3905 265.549 82.8309 283.544C87.607 292.648 94.1125 300.718 103.458 309.955C112.804 319.192 125.243 329.101 145.148 342.711C165.054 356.322 192.049 373.334 206.573 382.615C222.445 392.756 229.468 397.816 241.361 405.639C262.067 420.071 268.488 425.817 271.283 428.303C272.633 429.459 273.845 430.402 276.7 432.241" stroke="#FF3946" stroke-width="60" stroke-linecap="round"/>
<path d="M258.149 171.625C258.858 168.147 269.987 142.951 288.804 114.395C294.921 105.111 304.793 96.9372 319.025 88.9064C341.348 76.3099 377.955 79.1472 393.209 82.4749C405.928 85.2495 420.415 102.62 431.725 119.048C437.427 127.329 438.276 137.523 439.253 155.119C440.001 168.592 439.348 191.364 438.214 208.767C437.081 226.169 434.998 237.531 431.518 250.298C428.039 263.065 423.227 276.894 416.15 292.554C409.073 308.214 399.878 325.286 387.597 343.159C375.316 361.031 360.228 379.187 344.693 394.42C329.157 409.653 313.631 421.414 301.537 429.506C289.443 437.599 281.25 441.667 270.614 446.732" stroke="#FF3946" stroke-width="60" stroke-linecap="round"/>
</svg>
